<?xml version="1.0" encoding="UTF-8"?>
<svg version="1.1" viewBox="0 0 1600 1255" width="841" height="660" xmlns="http://www.w3.org/2000/svg">
<path transform="translate(0)" d="m0 0h1600v1255h-1600z" fill="#FCFCFC"/>
<path transform="translate(1231,226)" d="m0 0h38l17 5 7 2v36l-7 283-1 20-1 41v73l2 7 5 12 12 31 7 19 2 87 1 50v76l-3 3h-3l-5-16-5-12-4-12-5-12-7-20-8-22-7-19-2-7-1-5-5 3h-2l4 24 1 9h2l4 21v8l-7 4-8 2 5 2 4 11 2 8 2 13 4 11 1 9-2 9-1 3v7l4 17 5-5 7-6 2-1h9l10 5 9 7 7 7 8 16 5 12 9 11 9 4h19l17 5 7 2 5-5 5-6h2v-2h2l2-4 7-6 9-5 12-4 5-4 10-4 7-4h8l10 2 6 3 8 10 1 3 2 17 6 9 6 8 5 15 11 18 3 7 1 8-2 5-4 5-5 3-5 2-3 5-5 9-8 5-8 4-6 2h-10l-12-3-2-1h-10l-2 5-4 14-4 8-4 4-9 3-13 2h-11l-17-1-5-1h-15l-8 7-11 1-11-1-11 1h-15l-5-1h-9l-10 1-7-1h-9l-13 3-5 2-11 1-10-5-4-7v-2l-4-2-5-3-6-2-16-2-16 1-12 1h-22l-10 1h-18l-23-1-18 1-33-1-12-2-9-1-9-4-2-9-2-15-3-5-13-1-5-4 1-7 7-14-2-6-3-7-6-4v-2l-9-3-14-3-13-4-5-3-5-2-57-10-10-3-25-13-5-3-12 8-1 1h-10l-12-3-39-7-18-2-42-8-1-1-46-8-20-2-70-14-2-1-10-1-2-1-22-3-37-7-7-2-14-2-8-2-24-3-26-5-7-2-20-3-29-6-5-3v-7l-9 4-6 2-12-1-52-10-4-2-2-3-1-5-10 1-10 3-13-1-31-6-10-3-5-4-3-1h-21l-13-4-23-5-4-5-1-9 1-7 4-4 10-3 17-5 13-5h15l13 2h14l13-4 14-4 15 1 6 1h9l12-5 34-10h13l25 4-1-13-1-33v-38l6-3 33-8 6-2h16l45 6 1 1 1 16v28l17-5 11-3h11l36 5v-45l8-4 14-4 13-3 9-3h10l44 5 12 2 1 1v72l31-11h11l11 2 21 2 26 4 1 1 1 21v145h4l-1-175v-126l8-4 30-8h20l56 5v328l7 1v-193l1-218 7-3 27-6h29l20 2 26 1 8 1v51l-1 98v234h2v-2l2-1 1-56 3-355 1-119 1-4 12-2 10-1h77l20 1v100l-1 55-1 27-1 112-1 28-1 81-1 45-1 101 8 1 5 2h6l8-7 7-10 5-10 5-4 5-3 4-8 4-15 4-6 14-7 4-14 6-4-1-9-1-7 2-3-10-1-10-4-4-4 1-10 4-17 2-9 5-22-2-1-14-2-2 10-5 11-8 22-5 12-6 17-8 21-4 10-5 4h-2v-62l2-135 2-12 10-26 13-35 5-11 3-10 3-6 1-33 4-229 2-127 1-32 2-4 2-1z" fill="#B4B3B2"/>
<path transform="translate(907,622)" d="m0 0h29l20 2 26 1 8 1v51l-2 217-1 143-1 14-9 5-11 1-9 6-3 4h-2l-2 6-4 8-2 6-59-10-15-4-25-13-5-3-12 8-1 1h-10l-12-3-39-7-18-2-42-8-1-1-46-8-20-2-70-14-2-1-10-1-2-1-22-3-37-7-7-2-14-2-8-2-24-3-26-5-7-2-20-3-29-6-5-3v-7l-9 4-6 2-12-1-52-10-4-2-2-3-1-5-10 1-10 3-13-1-31-6-10-3-5-4-3-1h-21l-13-4-23-5-4-5-1-9 1-7 4-4 10-3 17-5 13-5h15l13 2h14l13-4 14-4 15 1 6 1h9l12-5 34-10h13l25 4-1-13-1-33v-38l6-3 33-8 6-2h16l45 6 1 1 1 16v28l17-5 11-3h11l36 5v-45l8-4 14-4 13-3 9-3h10l44 5 12 2 1 1v72l31-11h11l11 2 21 2 26 4 1 1 1 21v145h4l-1-175v-126l8-4 30-8h20l56 5v328l7 1v-193l1-218 7-3z" fill="#B22F30"/>
<path transform="translate(647,95)" d="m0 0h99l57 2 26 2 14 3 9 4 10 6 8 8 8 14 6 21 3 23 2 29v84l-3 39-3 18-2 8h-2v6l-8 15-10 10-10 6-10 4-17 2-58 3-42 1h-138l-53-2-23-2-20-4-12-6-9-7-6-8-5-10-4-10-4-20-3-35-1-20v-61l3-45 2-16 6-21 8-15 11-11 14-7 16-4 27-2 21-1z" fill="#DD2C28"/>
<path transform="translate(1231,226)" d="m0 0h38l17 5 7 2v36l-7 283-1 20-1 41v73l2 7 5 12 12 31 7 19 2 87 1 50v76l-3 3h-3l-5-16-5-12-4-12-5-12-7-20-8-22-7-19-2-7-1-5-5 3h-2l4 24 1 9h2l4 21v8l-7 4-13 3h-31l-1-1 1-38 1-26-1-2-9-2-2 16-3 34-2 17-10-1-12-4-6-5 1-10 4-17 2-9 5-22-2-1-14-2-2 10-5 11-8 22-5 12-6 17-8 21-4 10-5 4h-2v-62l2-135 2-12 10-26 13-35 5-11 3-10 3-6 1-33 4-229 2-127 1-32 2-4 2-1z" fill="#B33031"/>
<path transform="translate(1021,469)" d="m0 0h77l20 1v100l-1 55-1 27-1 112-1 28-1 81-3 128v32l-5 8-3 10v17l-1 8 3 9 1 9-1 1h-10l-2-5h-4l-3 5-4-2-6-8-5-2-7-2-8-7-10-6-6-2-13-1-9 1-9 3-8 3-5 2-1-2v-122l3-355 1-119 1-4 12-2z" fill="#B32F30"/>
<path transform="translate(907,622)" d="m0 0h29l20 2 26 1 8 1v51l-2 217-1 143-1 14-9 5-11 1-9 6-3 4h-2l-2 6-4 8-2 6-59-10-15-4-25-13-5-5 1-9v-309l1-15 13-4 7-2 3-1v326l7 1v-193l1-218 7-3z" fill="#B32F30"/>
<path transform="translate(672,147)" d="m0 0h7v1h-6v196h26v-13l16 12 6 2h13l8-4 5-6 2-4 2-19v-91h1l2 13 1 22 1 7 1 29 2-13 3-16 3-15-1-3v-7l5-18 3-5 3-2 1 3-5 17v76l3 9 4 10 6 8 9 6 7 3h21l11-4 6-4 7-8 4-10 2-8 1-18h-29v21l-3 5-5 3h-8l-5-3-3-5-1-6v-33h54v-35h1l2 18v16l4-2 1-12 2-11 1-12 2-7h2l1-5 2-3h6l6 8 1-2 1-19v-15l1-3 3-1 1 17v84l-3 39-3 18-2 8h-2v6l-8 15-10 10-10 6-10 4-17 2-58 3-42 1h-138l-53-2-23-2-20-4-12-6-9-7-6-8-5-10-4-10-4-20-3-35-1-20v-61l3-45h1l1 19v13l-1 1v15l1 9v21l1 24 2 11 6 1 5-9 3-2 1-6 7-4 3-7 5-4 1-3h2l1-4 7-6 2 1-1-4 5-3 5-2-3-5 5-4v-17l1-10 1-7 2-3 1-6h1v162h30v-170h32v2h-29v30h1l1 18v21l1 22 2-1 3-15 2-7h2v-2l3-2v-5l3-5 2-16 1-12 2-5 2 1 1 129 5 13 5 4 3 1h15l10-6 7-6 3-4h2v15h27v-147h-28v113l-9 10-4 2h-6l-3-4v-121h-28l-1-2 19-1 12 1 2 3 1 11v25l1 26 4-4 3-8 2-9v-7l2-17v-11l1-6 3-3 18-1h12l2 3 1 121h2l-1-6 1-27 1-19 2-18 3-8h3l1-11v-18l1-12v-28l1-9 3-13z" fill="#B33132"/>
<path transform="translate(789,708)" d="m0 0h20l56 5v2l-4 3-16 4h-3v325l-2 10-12 8-1 1h-10l-12-3v-3l-10-1-22-5-19-4-1-1v-27h-5l4-1-1-175v-126l8-4z" fill="#B32F30"/>
<path transform="translate(1231,226)" d="m0 0h34l-1 16-5 203-2 55h-1l-2-15-5-6-4-3v-2l-3-1-4-5-4-2-5-6-8-4-2-4-5-2v-2l-3-1-5-4-5-5v-2h-2v-3l-4-2-7-15-6-12v-2l-2-1-1-6h-2l-2-3-4-20-1-23-1-83v-32l2-4 2-1z" fill="#B77073"/>
<path transform="translate(679,147)" d="m0 0h20v63h2l2-4 12-9 7-2h13l9 6 4 6 3 12 1 13v80l-2 19-5 8-6 5-5 2h-13l-9-4-10-8-2-2-1 12h-26v-196z" fill="#FCFCFC"/>
<path transform="translate(274,195)" d="m0 0h21l11 4 10 9 4 6 4 13 1 8v73l-3 15-5 9-8 8-9 5-8 2h-16l-11-4-10-8-6-10-3-8-1-6v-80l3-12 6-12 8-7 7-4z" fill="#040001"/>
<path transform="translate(316,881)" d="m0 0h13l7 1v1h-14l-4 2-6 1-7 4-16 7-2 3-6 1 7 3 2 2 4 1 2 2 13 1 6 3v3l2 1 3 15 1 12h2l3 7 1 21h8l7-2 9 1 3 3-10 4-9 1-43-8-15-3-4-2-2-3-1-5-10 1-10 3-13-1-31-6-10-3-5-4-3-1h-21l-13-4-23-5-4-5-1-9 1-7 4-4 10-3 17-5 13-5h15l13 2h14l13-4 14-4 15 1 6 1h9l12-5z" fill="#BE8286"/>
<path transform="translate(985,627)" d="m0 0h5v50l-2 217-1 143-1 14-9 5-13 1-1-4 1-34v-173l1-27 1-185 9-3 10-1z" fill="#7B1618"/>
<path transform="translate(801,195)" d="m0 0h21l12 6 9 8 6 12 3 12v42h-54l1 33 2 8 1 3 5 2h8l5-3 2-4 1-21h29v18l-4 14-6 9-8 7-9 4-4 1h-21l-12-6-8-7-6-12-3-11-1-1v-76l5-17 7-10 11-8z" fill="#FAFAFA"/>
<path transform="translate(1234,69)" d="m0 0 3 3 30 72 14 34 11 27v4l-2 1-65 3h-27l-5-2-18-4-5-2 1-6 11-22 13-28 23-47 15-32z" fill="#CD9499"/>
<path transform="translate(346,196)" d="m0 0h28l1 123 2 2 7-1 8-6 3-4 1-114h28v149h-29v-14l-8 7-10 7-5 2h-11l-6-3-5-5-4-11z" fill="#050101"/>
<path transform="translate(573,197)" d="m0 0h27l1 121 2 3h6l6-4 6-7 1-113h28v147h-27v-15l-5 5-11 9-6 3h-15l-7-4-4-6-3-9v-129z" fill="#FAFAFA"/>
<path transform="translate(148,146)" d="m0 0h31l8 29 9 34 2 12h2l2-11 13-49 4-15h32l-12 39-9 29-8 26-7 22-1 83-29-1-1-77-2-9-8-26-15-48-11-35z" fill="#030000"/>
<path transform="translate(1104,470)" d="m0 0h14v100l-1 55-1 27-1 112-1 28-1 81-2 88-1 31-2 2-2-13-1-5-4-2-2-2-4 2-4-1v-66l1-34 1-80 2-32 4-42 1-25 3-151 1-51 1-20z" fill="#7C181A"/>
<path transform="translate(863,715)" d="m0 0h2v326l7 1 2 29 4 2 34 6 22 4 8 2v1l-11-1-51-9-10-3-25-13-5-5 1-9v-309l1-15 13-4 7-2z" fill="#862729"/>
<path transform="translate(1459,1016)" d="m0 0h17l11 4 8 7 8 14 7 20 5 10v11l10 13 8 13 3 8v11l-3 5-8 4-11 1-2 13-2 5-9 4-13 5h-22l-11-2-4 8-2 13-4 8-4 4-6 2-23 1h-33l-10-5-4 1-9 6-5 1-50 1-6 5-4 4h-14l-1-1h-19l-9 5-4 1h-16l-8-3-4-5-2-4-1-16-9-2-13-1-2-1h-9l-12 3-16-1h-58l-32 2h-22l-18-2-11-6-6-5v-12l-1-4h-19l-5-2-4-5-2-5v-10l6-9 5-5 1-4-4-7-1-4-9-4-15-3-11-6-2-4-9 1-13 6-5 1h-11l-7-3-16-11-8-6-9-3-44-9v-1l6-2 12-8 32 17 24 5 41 7 15 7 22 5 7 3 2 1v2l5 2 3 3 4 11-3 7-4 8-1 7 4 3 13 1 4 6 3 24 9 3 21 3 33 1 23-1 18 1h20l10-1h26l6-1 19-1 16 3 7 3 5 4 5 9 10 4 13-2 9-3 6-1h9l11 1 7-1h9l4 1h15l11-1 11 1 11-1 5-5 3-2h15l5 1 19 1h9l16-3 7-3 4-5 3-7 3-12 3-5 2-1h8l9 3 5 1h10l11-4 10-6 7-13 3-3 7-3 5-5 2-7-2-9-8-14-6-10-4-13-10-13-3-9-1-12-3-6-6-7-8-3-7-1h-8l-14 7-10 6-12 4-11 7-5 6h-2v2l-5 5-5 6-4 1-17-6-5-1h-19l-10-5-5-6 1-2 7 7 5 2h18l9 2 14 6h5l10-16 8-7 16-8 11-6 16-8z" fill="#E0E0DF"/>
<path transform="translate(483,147)" d="m0 0h93v27h-32v170h-30v-169h-31z" fill="#FBFBFB"/>
<path transform="translate(1154,672)" d="m0 0h3l2 4v49l-1 74-1 28v19h3v2h2l-1 11-1 10-7 19-5 12-6 17-8 21-4 10-5 4h-2v-62l2-135 2-12 10-26 13-35z" fill="#B33233"/>
<path transform="translate(1231,226)" d="m0 0h34l-1 16-3 125-2 1v-15l-3-1-3-5-5-4-4-6-14-14-3-5v-3h-2l-10-15-6-10v-2l-5-2-4-4-4-7-4-10-3-3-2-5v-8l-3-3-6-4-3-5v-7l-2-1z" fill="#BD8285"/>
<path transform="translate(1110,961)" d="m0 0h1v59l1 5 2-2 4 1 8 5 6-1 11-9 4-3 4 2 4 5v2l3 1 3 4-1 5-12 11-3 6v4l7 4 7-3h6l4 13 5 8v2l7 1 4-6 4 1 3 6v4l-5 5-6 3-8 1-2 4 1 8 6 9-1 5-3 1-9-4-17-5-6-4 1-21-2-4-2-1h-8l-5 5-3 9v13l-5 3-5-1-4-6-6-3h-17l-6 1v-3h-2l-3-7-7-5-14-7-8-6-11-5-17 2-10 1-10 4h-2v16h-2l-1-24 3 3 6-3 15-5 14-1 11 2 10 5 9 7 3 3 9 2 5 4 4 6 3 1 3-5 5 1 1 4h10l-1-9-3-9 1-12v-13l4-12 4-6v-32z" fill="#888887"/>
<path transform="translate(1171,232)" d="m0 0h1l1 29v35l2 26 2 9 6 20 7 14 3 7 8 16 2 2v3l4 2 6 9 7 4 4 5 8 4 9 3 4 1 3 2 6 1 4 10h1l-1 43-1 23h-1l-2-15-5-6-4-3v-2l-3-1-4-5-4-2-5-6-8-4-2-4-5-2v-2l-3-1-5-4-5-5v-2h-2v-3l-4-2-7-15-6-12v-2l-2-1-1-6h-2l-2-3-4-20-1-23-1-83v-32z" fill="#B36568"/>
<path transform="translate(316,881)" d="m0 0h13l7 1v1h-14l-4 2-6 1-7 4-16 7-2 3-6 1 7 3 2 2 4 1 2 2 13 1 6 3v3l2 1 3 15 1 13-2 12-6 4-9 3h-5l1-2-1-3-4-1-1-2-10-4-1-3-2-1v-3l-5-2-4-3-4 2h-4l-2 5-8 8-7 1-2-2-4-24 1-12-20-3-10-3 2-4 11-4 17-6 9-1 4 1h15l10-5 6-1v-2z" fill="#D96A6A"/>
<path transform="translate(863,715)" d="m0 0h2v69l-1 160h-1l-1-51 1-2-2-1v-23l-1-3-3-1-2 4-5-1-2-1-5 2-2-5v-125l1-15 13-4 7-2z" fill="#7B1618"/>
<path transform="translate(282,891)" d="m0 0 4 1-15 6-1 1h-15l-6-1-11 2-15 6-13 3-11 1-4 1v2l2 2-1 2-10 2-7 1-1 6h-2l2 7 3 5 5 1 9-3v-6l3-6h4l3 5 2 6v12l9 4 23 6 11 1 16-1v1l-16 4-13-1-31-6-10-3-5-4-3-1h-21l-13-4-23-5-4-5-1-9 1-7 4-4 10-3 17-5 13-5h15l13 2h14l13-4 14-4 15 1 6 1h9z" fill="#CD959A"/>
<path transform="translate(1202,920)" d="m0 0h5l4 5 3 11-1 10v17l3 5 7 2 1 1v10l-1 4 4 13 5 9v2h2l6 12 3 3v7l-3 8-2 10-4 6-7 1-5-1-8 1-1-1v-16l-1-7v-14l-3-10-2-10-2-4-6-2-3-2-2-25-2-6 1-10 6-13 1-13z" fill="#888887"/>
<path transform="translate(964,885)" d="m0 0h1l1 21h2l2 4 3-1v3l3-1 3 1 3 5 1 9 1 20 1 4-1 10 1 26v46l-2 12-1 3v3l4 1-9 5-13 1-1-4 1-34z" fill="#862729"/>
<path transform="translate(1235,71)" d="m0 0 3 3 18 44 11 26 14 34 11 27v4l-2 1-65 3h-27l-5-2-18-4v-2l4-1 84-4-12-53-12-58-4-13z" fill="#B33334"/>
<path transform="translate(488,831)" d="m0 0h11l36 5 1 7-5 3-12 4v30l-1 36-2 10-3 14-1 16-2 5-2 1-1-2-2-55-1-15v-35l-8-1-25-4-4-2-22-3-5 1v-8l4-3 10-1 2 4h9l18-6z" fill="#DD2D29"/>
<path transform="translate(710,219)" d="m0 0h7l5 4 2 4 1 10v65l-2 14-4 5-3 1h-7l-9-5-1-1v-91l8-5z" fill="#B53637"/>
<path transform="translate(280,220)" d="m0 0h10l6 7 1 2v83l-4 7-4 3h-8l-6-5-2-5v-83l4-7z" fill="#F9F9F9"/>
<path transform="translate(583,194)" d="m0 0 19 1 2 3 1 11v25l1 26 4-4 3-8 2-9v-7l2-17v-11l1-6 3-3h5l1 2h-5v113l-9 10-4 2h-6l-3-4v-121h-28l-1-2z" fill="#B32F30"/>
<path transform="translate(1110,961)" d="m0 0h1v59l1 5 2-2 4 1 8 5 6-1 11-9 4-3 4 2 4 5v2l3 1 3 4-1 5-12 11-3 6v4l7 4 7-3h6l4 13 5 8v2l7 1 4-6 4 1 3 6v4l-5 5-6 3-8 1-2 4 1 8 6 9-1 5-3 1-4-3 4-1-1-5-4-7-2-9 1-3v-12l-5-11-1-9v-2l-7 3-3 4-4-2-2-2-7-3-8-10-4-6v-2l-2 1-4 9-8 9h-7l-1-6 1-11v-3-3l3-5v-32z" fill="#958E8E"/>
<path transform="translate(1029,473)" d="m0 0h42l14 1-1 9-1 48-1 14-3-4-10-15-1-5h-3l-4-7v-2h-2l-5-9-2-2-5-7v-2h-2v-2l-3-1v-2l-4-2-1-3h-2l-1-2-9-4-9-1v-1z" fill="#B36669"/>
<path transform="translate(1186,846)" d="m0 0 19 1 7 1v1h-5l-2 16-3 34-2 17-10-1-12-4-6-5 1-10 4-17 2-9 3-13 4-6z" fill="#7E1A1C"/>
<path transform="translate(677,846)" d="m0 0h11l11 2 21 2 21 3v2h2v2l-20 8-12 3-5 1-1 3-21-2-44-6-2-1v-2h7l1-4z" fill="#DC2F2C"/>
<path transform="translate(579,777)" d="m0 0h10l44 5 10 3 1 2-27 7-14 4-2-1v2l-17-1-44-6-2-3 12-4 20-5z" fill="#DC302C"/>
<path transform="translate(272,939)" d="m0 0 9 6v3l4 2-1 2 5 1 6 3v2l5 1 3 3-4 2 11-3 8-4 2-12 3-1 3 7 1 21h8l7-2 9 1 3 3-10 4-9 1-43-8-6-1v-2l-4-2-1-3-10-7h-18l1-2h2l2-5 5-5 1-2z" fill="#B87376"/>
<path transform="translate(397,788)" d="m0 0h16l45 6-2 4-9 2-15 4-15 3-6 2h-3v-2h-8v-1l-15-2h-12l-5-1-3-3v-2l-3-1 29-7z" fill="#DC322E"/>
<path transform="translate(1280,1051)" d="m0 0 6 1 4 6 4 10 4 5v8l2 4 6 2 3 5-1 3-10-2-9-2-10 3-5-5-9-13-7-9-2-3 1-5 5 2 3 2 6-1 6-10z" fill="#888887"/>
<path transform="translate(1216,1070)" d="m0 0 4 1-1 8-3 4-8 3-2 6 8 1 3 7 1 9-2 6-2 5-11 7h-12l-2-8 3-12 1-10 1-12 3-3 1-5 2-1h11z" fill="#948E8E"/>
<path transform="translate(332,887)" d="m0 0 13 1 8-1 1 1v5l-9 7-1 3-1 20h-2l-3-8-3-3 1 3-1 30 5-1 1-11 2 4-2 12-8 4h-5l-1-18v-30l14-6h3l-1-1-14 4h-12l-7-2 1-3 5-2 1-4-3-1 6-2z" fill="#DE2C28"/>
<path transform="translate(746,963)" d="m0 0h1l1 59h5l1 27 29 6 22 5v2l-10-1-35-6-8-3-22-12-8-5 1-2h2l1-14h5v-2l15 1z" fill="#862628"/>
<path transform="translate(1207,849)" d="m0 0 9 1 2 4-2 52v12h-12l-5-1 4-38 2-21z" fill="#BD8286"/>
<path transform="translate(1238,201)" d="m0 0h27l17 7v1l-11 1-3 1-43 2h-27l-5-2-18-4v-2l4-1z" fill="#8B2E30"/>
<path transform="translate(1162,653)" d="m0 0h1l1 15v20l-2 81-2 55v16l1 2 7 1 1 2-3 10-6 12-1-4 3-15h-2v-2h-3l-1-2v-20l1-25 1-74v-49l-2-2-1-3 3-10z" fill="#7D1A1C"/>
<path transform="translate(806,219)" d="m0 0h9l6 4 2 4 1 10v16h-26v-22l2-7z" fill="#DC2E2B"/>
<path transform="translate(864,988)" d="m0 0h1v53l7 1 2 29 4 2 34 6 22 4 8 2v1l-11-1-51-9-10-3-25-13-5-5 12-7 10-7h2z" fill="#892E30"/>
<path transform="translate(1104,145)" d="m0 0 5 1 7 3-1 5-15 26-10 17-3 1-9-5 1-5 14-24z" fill="#B43839"/>
<path transform="translate(174,898)" d="m0 0h9l17 3h15l-2 2h-14l-13-2h-15l-20 7-17 5-5 1-2 7v9l3 6 9 3 23 5 5 2h21l6 3 4 3 29 6 18 3 9-1 12-3 5 1 2 8-6-4h-9l-12 2-12-2-32-6-8-3-5-3h-21l-32-6-9-3-4-5v-18l3-5 9-4 34-10z" fill="#E1E1E0"/>
<path transform="translate(1056,221)" d="m0 0 5 2 6 4-1 4-9 15-15 23-2 2-5-1-6-4 2-5 16-26 7-11z" fill="#B33637"/>
<path transform="translate(413,822)" d="m0 0 2 2 4 16 3 9 3 7v8l-1 8-1 17-4 23-3 3-2-7-1-36z" fill="#DE2C28"/>
<path transform="translate(1016,285)" d="m0 0 5 2 5 5-2 5-8 12-12 17-5 6-6-2-4-4 2-6 14-20 10-14z" fill="#B43738"/>
<path transform="translate(1193,915)" d="m0 0h3l-1 8 2 5v6l-6 4-4 14-15 8-4 7-4 16-5 7-8 5-8 15-11 12-2 1-9-1-10-3v-5l1 3 7 1 5 2h5l8-7 7-9v-15l4-8 7-8 6-1 2-7 9-10 10-6 7-13 6-4-1-5-2-5v-5z" fill="#E0E0DF"/>
<path transform="translate(1110,961)" d="m0 0h1v59l1 5 2-2 4 1 8 5 6-1 9-7 6-1 4 5 4 6-1 5-10 10-5-1-3-10-5 1-5 4-5-5-11-3-1-11v-20z" fill="#8D8988"/>
<path transform="translate(171,900)" d="m0 0h15l3 2h-12l-13 4-8 3-12 4-13 6 8 3 6 2v2l-11-1 3 10 11 3 22 5 21 1 7 6 22 5 27 5 12-3h7v1l-16 4-13-1-31-6-10-3-5-4-3-1h-21l-13-4-23-5-4-5-1-9 1-7 4-4 10-3 17-5z" fill="#B4B4B3"/>
<path transform="translate(971,349)" d="m0 0 4 1 5 5 1 3-10 14-13 16-4 5-6-2-4-4 1-4 7-9 12-16z" fill="#B43637"/>
<path transform="translate(986,1037)" d="m0 0h1v26l-4 3h-2v2l-8 4-11 1-4 2-2 5-1 2h-2l-2 4-4 2-3-2 3-10 5-9h2l2-4 5-4 5-3 11-1 8-4z" fill="#888786"/>
<path transform="translate(922,412)" d="m0 0 5 1 5 4-1 5-9 11-13 15-4 4-5-1-5-5 2-5 12-13 4-6h2l2-4z" fill="#B43839"/>
<path transform="translate(710,219)" d="m0 0h7l3 2v7l1 2-1 14-3 4h-5l-4 8-2 14-3 1-1-46v-2z" fill="#DD2D2A"/>
<path transform="translate(1145,62)" d="m0 0 5 1 7 4-2 6-13 24-4 7-7-2-5-3 1-5 13-24z" fill="#B33435"/>
<path transform="translate(1205,855)" d="m0 0 1 3-3 31-3 27-10-1-7-2v-1h5l-4-3v-6h2v-2h2l1-4 3-8 2-5 2-10 4-10 2-7h2z" fill="#B33031"/>
<path transform="translate(1091,907)" d="m0 0h1v59l4 1 2-13 3-14 2-17 2-4h2l1 9v40l1 8h1v16l-2 2-2-13-1-5-4-2-2-2-4 2-4-1z" fill="#862729"/>
<path transform="translate(871,471)" d="m0 0 5 2 4 4-1 5-18 18-6 7h-2v2l-4-1-5-5 1-5 8-8 7-8z" fill="#B43839"/>
<path transform="translate(1197,1098)" d="m0 0 4 1 4 4 4 1v-2h4l1 2-1 13-5 7-6 3h-11l-2-8 3-12 4-8z" fill="#888887"/>
<path transform="translate(1159,1057)" d="m0 0h6l4 13 5 8v2l7 1 4-6 4 1 3 6v4l-5 5-6 3-8 1-2 4 1 8 6 9-1 5-3 1-4-3 4-1-1-5-4-7-2-9 1-3v-12l-5-11-1-9v-2l-6 1z" fill="#958F8F"/>
<path transform="translate(1104,470)" d="m0 0h14v1l-6 1 1 3-3 8-2 4-2 26 1 11h-2v3h2l1 4v10l-1 4v12l-1 17-2 44-1 50-1 18h-1v-49l3-143 1-22z" fill="#862729"/>
<path transform="translate(535,988)" d="m0 0h3l1 7 1 17 16 3-4 2-13-1-33-6 1-3 19-9h2l1-5z" fill="#852628"/>
<path transform="translate(816,527)" d="m0 0 5 1 4 4-1 5-9 9-16 14h-5v-2h-2l-2-3 1-5 12-11 7-7z" fill="#B43637"/>
<path transform="translate(761,576)" d="m0 0 4 1 4 5-1 5-14 11-11 9-5-1-4-5v-3l22-18z" fill="#B63637"/>
<path transform="translate(1026,1064)" d="m0 0 13 1 10 4 11 8 4 4 9 2 5 4 4 6 3 3-2 2-4-2-5-7-7-3-7-2-10-10-7-4-6-1-15 1-19 6-7 2v16h-2l-1-24 3 3 6-3 15-5z" fill="#B87376"/>
<path transform="translate(266,913)" d="m0 0 2 3v8l-3 12-5 3-3-1h-7l-3-2-1-9 3-9 9-3z" fill="#B32F30"/>
<path transform="translate(704,620)" d="m0 0 4 1 4 4-1 5-10 8-16 10-4-1-3-4 1-5 17-12z" fill="#D83532"/>
<path transform="translate(840,1056)" d="m0 0 32 17 13 3-4 2-10-1-49-10v-1l6-2z" fill="#B1B0AF"/>
<path transform="translate(1200,847)" d="m0 0 12 1v1h-5l-2 8-3 2-4 14-2 5-2 8-3 10-3 5h-2v2h-2l1 3-1 3 5 2-1 2-8-1 3-1-1-6 3-14 2-6 4-19 4-9 2-3h2z" fill="#862729"/>
<path transform="translate(1280,1051)" d="m0 0 6 1 4 6 4 10 4 5v8l2 4 6 2 3 5-1 3-10-2-9-2-10 3-5-5-4-6 1-2 4 1 6 1 4 5 6-1 1-3-1-5v-6l-3-6-2-10-3-3-5 1-3 2 1-4z" fill="#958F8F"/>
<path transform="translate(636,996)" d="m0 0h1l1 35-16-8-6-4 3-2 2-1 3-14 7-2 4-1z" fill="#852628"/>
<path transform="translate(1207,921)" d="m0 0 4 4 3 11-1 10v17l3 5 7 2 1 1v10l-1 4 4 13 5 9v2h2l6 12 3 3v7l-2 3-1-9-7-5-5-8-4-4-2-15-1-4v-12l-1-2-5-2-4-4-2-14 1-8-1-10 1-7z" fill="#958F8F"/>
<path transform="translate(721,1035)" d="m0 0 4 1 22 12 6 4 7 2v1l-12-1-42-8v-3z" fill="#969291"/>
<path transform="translate(648,658)" d="m0 0 4 2 3 3-1 5-18 11-7 4-4-1-3-3v-5l9-6 15-9z" fill="#D83734"/>
<path transform="translate(1099,1056)" d="m0 0h1l2 8-1 12 3 9 1 9-1 1h-10l-2-5h-5l1-9 4-12 2 2 1-3h-2l1-7 4 1z" fill="#862729"/>
<path transform="translate(789,708)" d="m0 0h3l-1 3h-2v3h-2l-2 4-2 3 43 4v2h-13l-59-6-2-2 11-4z" fill="#D53432"/>
<path transform="translate(591,690)" d="m0 0 5 1 3 4-1 5-23 12h-5l-3-3v-6l22-12z" fill="#D83835"/>
<path transform="translate(1212,849)" d="m0 0h10l26 3 3 3-8 4-8 6-8-1-6-3v-2l-4-1-1-7z" fill="#7B1719"/>
<path transform="translate(987,894)" d="m0 0h1l1 115h2v-2h2v39l-3 6-2-1-1-21z" fill="#DAD3D2"/>
<path transform="translate(536,716)" d="m0 0h5l3 6v3l-12 6-10 4h-7l-2-2v-6l6-4 15-6z" fill="#D83936"/>
<path transform="translate(1162,653)" d="m0 0h1l1 15v20h-1v-11h-2v34l-2 88h-1v-123l-2-2-1-3 3-10z" fill="#87292B"/>
<path transform="translate(808,276)" d="m0 0 9 1 5 2-2 3-13 2-1 4-2 13 2 10 2 3 4 2-4 2 1 4-5-2-4-4v-33l3-5z" fill="#DC2D2A"/>
<path transform="translate(484,737)" d="m0 0 5 1 2 3v5l-8 4-13 4h-7l-2-4 1-5 10-4z" fill="#D83936"/>
<path transform="translate(321,944)" d="m0 0h2l3 7 1 21 6 1-1 2-7 1-4-1v-2h2v-2l-4-1-13-4-2-3 13-5 1-1 2-12z" fill="#B36669"/>
<path transform="translate(433,753)" d="m0 0h6l2 3v5l-3 3-18 4-4 1-3-3v-6l9-4z" fill="#D83836"/>
<path transform="translate(863,962)" d="m0 0h1l1 26-1 53-20 13-3 1v-13l1-3 7-1 14 2z" fill="#7B1618"/>
<path transform="translate(388,764)" d="m0 0h4l2 9-2 2-17 4h-6l-2-2v-7l8-3z" fill="#B6383A"/>
<path transform="translate(1235,71)" d="m0 0 3 3 9 22 3 17 3 9v8l-3 1-4-8-7-34-4-13z" fill="#D72F2C"/>
<path transform="translate(616,1019)" d="m0 0 5 2 14 8 9 4 9 2v1h-8l-46-9 4-2z" fill="#AEAEAD"/>
<path transform="translate(343,773)" d="m0 0h5l3 4-1 6-9 2-5 1h-9l-3-4 2-5 4-2z" fill="#D57273"/>
<path transform="translate(1260,228)" d="m0 0h3v15l-5-2-2-2-9 6-6-1-4-4-1-4 7-2 7-1v-2h5 1z" fill="#CD9499"/>
<path transform="translate(1145,62)" d="m0 0 5 1 2 2-8 13-12 20-2 3-4-2 1-5 13-24z" fill="#B76F71"/>
<path transform="translate(1160,778)" d="m0 0h1v25l-1 21v16l1 2 7 1 1 2-3 10-6 12-1-4 3-15h-2v-2h-3l-1-2v-20l1-25 2 2z" fill="#862729"/>
<path transform="translate(299,779)" d="m0 0h10l2 3v5l-5 3-17 1-3-3v-5l4-3z" fill="#D67273"/>
<path transform="translate(1037,1068)" d="m0 0 9 2 8 6 3 4v2l10 3 7 3 6 8 4 2v3l2 2-6 1v-3h-2l-3-7-7-5-14-7-8-6-11-5-17 2h-5l3-2 6-2z" fill="#958F8F"/>
<path transform="translate(263,782)" d="m0 0h9l3 2v6l-1 2-12 2h-6l-4-3v-6l2-2z" fill="#CB969A"/>
<path transform="translate(961,1063)" d="m0 0 6 1 4 2 2 6-11 1-4 2-2 5-1 2h-2l-2 4-4 2-3-2 3-6 2-1 3-6z" fill="#948E8E"/>
<path transform="translate(1043,474)" d="m0 0h42l-2 12-5-3-11-2-11-4-13-1z" fill="#BA7679"/>
<path transform="translate(442,974)" d="m0 0 3 1 1 19 7 3 16 3 2 2-22-2v-2l-4-1-10-7-7-4 3-2 6-3h2l1-5h2z" fill="#86292B"/>
<path transform="translate(1113,1036)" d="m0 0h7l2 3v9l-4 5-5 3h-5l-1-6 3-9z" fill="#B4B4B3"/>
<path transform="translate(518 1e3)" d="m0 0 5 1 15 9 1 3-11-1-22-4 1-3z" fill="#979292"/>
<path transform="translate(1176,1021)" d="m0 0 4 2 1 1v7l-6 12-1 1h-5l-1-1v-11l6-9z" fill="#888887"/>
<path transform="translate(1208,854)" d="m0 0 1 4-2 18-2 32-1 8h-4v-9l3-28 2-21 1-3z" fill="#B56C6F"/>
<path transform="translate(225,784)" d="m0 0h15l2 2v6l-2 2h-16l-2-3 1-6z" fill="#CB989C"/>
<path transform="translate(199,784)" d="m0 0h12l2 3v5l-3 3h-11l-4-2-1-6z" fill="#C79C9F"/>
<path transform="translate(1042,1067)" d="m0 0 5 1 12 8 5 5 9 2 5 4 4 6 3 3-2 2-4-2-5-7-7-3-7-2-10-10-7-4-5-1z" fill="#B76F72"/>
<path transform="translate(820,224)" d="m0 0h2l2 13v16h-26v-22h1v21l16-1 1-2 2-3 1-13v-8z" fill="#B74446"/>
<path transform="translate(468,378)" d="m0 0 4 1 5 4 4 3 19 6 7 3 1 3-10-1-13-4-14-9-3-3z" fill="#D73A37"/>
<path transform="translate(426,986)" d="m0 0h5l10 7 5 4 3 2-11-1-11-2-1-2-11-3 3-2z" fill="#A9A8A7"/>
<path transform="translate(1252,916)" d="m0 0h5l3 4 4 13 7 28v16l-3 6-1-3 2-9-2-12-4-11-2-15-4-12v-2l-6-1z" fill="#E0E0DF"/>
<path transform="translate(746,963)" d="m0 0h1l1 57-3-1v2l-10 2-4 2h-3v2h-2v-8h5v-2l15 1z" fill="#862729"/>
<path transform="translate(879,631)" d="m0 0h11l63 4v3h-10l-49-4-15-2z" fill="#C27A7E"/>
<path transform="translate(224,783)" d="m0 0h17l4 5-2 5-3 2-5 1h-11l-3-2h-7l-4 1 2-3-1-8 9 1zm1 1-3 3 1 6 1 1h16l2-2v-6l-2-2z" fill="#E1E1E0"/>
<path transform="translate(1336,1045)" d="m0 0 7 6 6 3h18l9 2 14 6h5l4-3-2 4-5 2-17-6-5-1h-19l-10-5-5-6z" fill="#E1E1E0"/>
<path transform="translate(342,970)" d="m0 0 9 1 3 3-10 4-9 1-15-3v-1h9l9-4z" fill="#BA7E81"/>
<path transform="translate(1215,857)" d="m0 0h2v22l-1 39-4-1v-11l2-30z" fill="#B66D70"/>
<path transform="translate(638,861)" d="m0 0 42 5 25 4v2l-21-2-44-6-2-1z" fill="#D4A9AB"/>
<path transform="translate(1254,850)" d="m0 0 2 1 8 43 2 12-2-1-6-23-6-27 1-4z" fill="#7D181A"/>
<path transform="translate(754,718)" d="m0 0 59 6 13 1v2h-13l-59-6-2-2z" fill="#C37C7E"/>
<path transform="translate(1179,204)" d="m0 0h11l2 2 6 2v2l27 2v1h-27l-5-2-18-4v-2z" fill="#B54B4C"/>
<path transform="translate(753,1050)" d="m0 0 9 1 26 5 17 4v2l-10-1-29-5-13-5z" fill="#7D191B"/>
<path transform="translate(540,788)" d="m0 0 4 2 50 6 7 1v2l-17-1-44-6-2-3z" fill="#CD8286"/>
<path transform="translate(1158,832)" d="m0 0h1l2 10 7 1 1 2-3 10-6 12-1-4 3-15h-2v-2h-3z" fill="#872829"/>
<path transform="translate(1104,470)" d="m0 0h14v1l-6 1 1 3-3 8-2 4-2 11-2-4 1-22z" fill="#892B2D"/>
<path transform="translate(604,1024)" d="m0 0 10 3 10 1 5 1 7 3 1-2 7 3 9 2v1h-8l-46-9 4-2z" fill="#989595"/>
<path transform="translate(259,955)" d="m0 0h12l12 9 1 3 2 2-9-1-4-2-2-3-1-5-11-1z" fill="#C09094"/>
<path transform="translate(876,1073)" d="m0 0 36 6 22 4 8 2v1l-11-1-51-9-4-1z" fill="#882729"/>
<path transform="translate(798,275)" d="m0 0h15v1l-9 2-3 5v12l-1 19h-1l-1-6z" fill="#BB494A"/>
<path transform="translate(1199,991)" d="m0 0h6l4 4 2 12 3 6 1 11v17l-1 8h-1v-10l-1-7v-14l-3-10-2-10-2-4-6-2z" fill="#958F8F"/>
<path transform="translate(1103,156)" d="m0 0 1 2-14 25-8 12-4-2 1-3v2l4-4 12-21 7-10z" fill="#B56C6F"/>
<path transform="translate(745,1019)" d="m0 0h2l-2 4-16 9-4 1v-5l3-1v-2l7-3 10-1z" fill="#7B1618"/>
<path transform="translate(1212,849)" d="m0 0h10l1 3 4 2 1 7-2 2-5-2v-2l-4-1-1-7z" fill="#862729"/>
<path transform="translate(1268,993)" d="m0 0 2 4 3 5 9-9h11l10 5-2 1-7-3h-9l-8 6-5 6-2-1-2-8z" fill="#E1E1E0"/>
<path transform="translate(1176,1021)" d="m0 0 4 2 1 1v7l-6 12-1 1h-5l-1-1v-11l6-9zm-1 4-5 6-1 8 1 3 5-1 3-7 1-6-2-3z" fill="#958F8F"/>
<path transform="translate(1141,72)" d="m0 0 1 3-8 15-5 9h-3l1-5 11-20z" fill="#B74041"/>
<path transform="translate(621,329)" d="m0 0h2v15l-2-2-3 2h-4l-1-4 4-6z" fill="#D6403E"/>
<path transform="translate(343,897)" d="m0 0 1 2-18 7-16-2v-2l19-1z" fill="#B32F30"/>
<path transform="translate(1192,1132)" d="m0 0 5 2 1 5-2 3h-6l-4-4 2-4z" fill="#E1E1E0"/>
<path transform="translate(961,1059)" d="m0 0h2l-2 5-9 10-3 7-2 1-2 3 1-6 6-12h2l2-4z" fill="#B66D70"/>
<path transform="translate(1065,1083)" d="m0 0h8l5 4 4 6 3 3-2 2-4-2-5-7-7-3-5-1z" fill="#B77174"/>
<path transform="translate(388,764)" d="m0 0h4l2 9-2 2-6 1-1-5 1-5-2-1z" fill="#D53D3B"/>
<path transform="translate(1142,1008)" d="m0 0v3l-9 10-3 2-9-1-10-3v-5l1 3 7 1 5 2h5l10-9z" fill="#E1E1E0"/>
<path transform="translate(865,939)" d="m0 0h1v19h4v9l-3 2-1 8h-1z" fill="#E1E1E0"/>
<path transform="translate(700,333)" d="m0 0 4 2 7 6v2l-8 2-3-3z" fill="#D8302D"/>
<path transform="translate(1126,1084)" d="m0 0 2 1-4 8-1 8v9l-5 3-5-1 1-2 5-1 1-7v-7l3-7z" fill="#958F8F"/>
<path transform="translate(343,773)" d="m0 0h5l1 1v8l-5-1-1-2-9-2 2-1v-2z" fill="#B83E3F"/>
<path transform="translate(1257,1059)" d="m0 0 5 2 3 2h6l-2 3-9-1 4 7 3 3-1 2-7-8-3-5z" fill="#958F8F"/>
<path transform="translate(482,148)" d="m0 0h1v26l-3-3-1-11 2-11z" fill="#B32F30"/>
<path transform="translate(449,173)" d="m0 0h1l1 19v13l-3 2v-22z" fill="#B74041"/>
<path transform="translate(290,780)" d="m0 0h9v1l-8 1 2 5v3l3 1h-7l-3-3v-5z" fill="#C99296"/>
<path transform="translate(1207,849)" d="m0 0 9 1 2 4-1 3-4-1-7-1z" fill="#8B8988"/>
<path transform="translate(335,972)" d="m0 0h7v3l-7 3-11-1-4-2h9z" fill="#C69498"/>
<path transform="translate(426,986)" d="m0 0h5l5 5-6 1-11-2v2l-4-2z" fill="#968B8B"/>
<path transform="translate(1222,1050)" d="m0 0 6 1 2 2 5-1-1 3-7 1-5-1-8 1 5-4z" fill="#958F8F"/>
<path transform="translate(468,848)" d="m0 0 36 4v3l-8-1-25-4z" fill="#D47374"/>
<path transform="translate(928,635)" d="m0 0h25v3h-10l-14-1z" fill="#BA9798"/>
<path transform="translate(986,1037)" d="m0 0h1v26l-4 3h-2v2l-5 3-3-1 10-8 3-1z" fill="#9C8586"/>
<path transform="translate(358,798)" d="m0 0 4 1-4 3h-5v37h-1v-38z" fill="#CA8385"/>
<path transform="translate(1216,1070)" d="m0 0 4 1-1 8-5 2-1-2v-6z" fill="#8C8A89"/>
<path transform="translate(706,895)" d="m0 0h3l1 2v7l-2 6-1 9h-1z" fill="#DE2C28"/>
<path transform="translate(727,1039)" d="m0 0 5 1 17 9v2l-9-3-8-4z" fill="#A8A7A6"/>
<path transform="translate(1158,819)" d="m0 0h1v13l-1 12h-2v-20z" fill="#7E1B1D"/>
<path transform="translate(540,788)" d="m0 0 4 2 25 3-4 2-19-2-7-2-1-2z" fill="#D86C6C"/>
<path transform="translate(1009,1071)" d="m0 0h3v2l-14 5h-2v16h-2v-18l9-3z" fill="#958F8F"/>
<path transform="translate(714,1039)" d="m0 0 3 1v2l6 3 1 2-13-2-4-2z" fill="#B1B0AF"/>
<path transform="translate(848,712)" d="m0 0 17 1v2l-4 3-4-1 1-2h-9z" fill="#934042"/>
<path transform="translate(736,1050)" d="m0 0h15l2 2 7 2v1l-12-1-12-3z" fill="#939291"/>
<path transform="translate(1105,498)" d="m0 0h1v20l1 6h-3v-25z" fill="#852628"/>
<path transform="translate(1091,177)" d="m0 0 1 2-8 13-2 3-4-2 1-3v2l4-4 5-9z" fill="#B87477"/>
<path transform="translate(1144,1088)" d="m0 0h1v20l2 3-5-2 1-20z" fill="#958F8F"/>
<path transform="translate(993,1070)" d="m0 0 3 3 6-3 7 1-10 5h-5z" fill="#B47174"/>
<path transform="translate(316,881)" d="m0 0h13l7 1v1h-14l-4 2h-6l1-3z" fill="#D57475"/>
<path transform="translate(1215,857)" d="m0 0h2v22l-3-3z" fill="#B56B6E"/>
<path transform="translate(539,1013)" d="m0 0h7l10 2-4 2-13-1z" fill="#8D4345"/>
<path transform="translate(1182,857)" d="m0 0 3 1-1 8-3 7h-2l2-12z" fill="#9C4749"/>
<path transform="translate(972,625)" d="m0 0h10l8 1v1h-5v3l-7 1 2-1-1-4h-7z" fill="#934D4F"/>
<path transform="translate(636,1030)" d="m0 0 12 4 5 1v1h-8l-11-2v-3l2 1z" fill="#9D9897"/>
<path transform="translate(604,1024)" d="m0 0 10 3 4 1v2l-10-1-9-2 4-2z" fill="#979493"/>
<path transform="translate(1261,882)" d="m0 0h1l4 24-2-1-4-15z" fill="#852426"/>
<path transform="translate(636 1e3)" d="m0 0h1v9l-5 3-2-1 5-10z" fill="#7B1618"/>
<path transform="translate(1194,962)" d="m0 0 2 2 2 24 1 3-3-1z" fill="#958F8F"/>
<path transform="translate(638,861)" d="m0 0 19 2-2 2-15-1-2-1z" fill="#CE888B"/>
<path transform="translate(1130,1067)" d="m0 0 3 1v5l-3 2h-3l1-6z" fill="#862729"/>
<path transform="translate(310,902)" d="m0 0 16 1v3l-16-2z" fill="#DA6A6A"/>
<path transform="translate(1135,87)" d="m0 0h2l-1 4-5 10-3-2z" fill="#B28B8D"/>
<path transform="translate(531,1010)" d="m0 0 6 1 2 4-11-1 3-3z" fill="#979796"/>
<path transform="translate(1208,854)" d="m0 0 1 4-2 14-2-1 1-16z" fill="#B77073"/>
<path transform="translate(432,995)" d="m0 0h8l9 3v1l-11-1-6-2z" fill="#917070"/>
<path transform="translate(1191,1134)" d="m0 0 5 1-1 5-5-1z" fill="#FDFDFD"/>
<path transform="translate(1233,1105)" d="m0 0 5 1-1 5-5-1z" fill="#958F8F"/>
<path transform="translate(791,1058)" d="m0 0 10 1 4 1v2l-10-1-6-1z" fill="#801E20"/>
<path transform="translate(369,769)" d="m0 0 2 1-1 2 1 4-1 2h5v1h-6l-2-2v-7z" fill="#D1787A"/>
<path transform="translate(961,1059)" d="m0 0h2v2l-7 5-5 7-1-2 2-4h2l2-4z" fill="#B36669"/>
<path transform="translate(1213,985)" d="m0 0h3l1 2v6h-3l-1-1z" fill="#862729"/>
<path transform="translate(676,867)" d="m0 0h12l1 3-12-1z" fill="#D3ACAD"/>
<path transform="translate(585,796)" d="m0 0h9l7 1v2h-8l-8-2z" fill="#C5A7A8"/>
<path transform="translate(1235,71)" d="m0 0 3 3 3 9-4-1-2-6z" fill="#C04E4E"/>
<path transform="translate(1103,156)" d="m0 0 1 2-6 11-2-3 6-9z" fill="#B36669"/>
</svg>
